<mxfile host="app.diagrams.net" modified="2020-09-30T11:14:33.363Z" agent="5.0 (Windows NT 10.0; Win64; x64) AppleWebKit/537.36 (KHTML, like Gecko) Chrome/85.0.4183.102 Safari/537.36 OPR/71.0.3770.175" etag="F439vCWtAWvcTS9Zh7OJ" version="13.7.6" type="github">
  <diagram name="Page-1" id="e7e014a7-5840-1c2e-5031-d8a46d1fe8dd">
    <mxGraphModel dx="952" dy="527" grid="1" gridSize="10" guides="1" tooltips="1" connect="1" arrows="1" fold="1" page="1" pageScale="1" pageWidth="1169" pageHeight="826" background="#ffffff" math="0" shadow="0">
      <root>
        <mxCell id="0" />
        <mxCell id="1" parent="0" />
        <mxCell id="gDLrxaN4vygvu0WdvZvW-41" value="Guest" style="shape=umlActor;verticalLabelPosition=bottom;verticalAlign=top;html=1;outlineConnect=0;fontFamily=Helvetica;" vertex="1" parent="1">
          <mxGeometry x="270" y="190" width="30" height="60" as="geometry" />
        </mxCell>
        <mxCell id="gDLrxaN4vygvu0WdvZvW-42" value="Bill" style="rounded=0;whiteSpace=wrap;html=1;gradientColor=none;fontFamily=Helvetica;" vertex="1" parent="1">
          <mxGeometry x="110" y="200" width="60" height="40" as="geometry" />
        </mxCell>
        <mxCell id="gDLrxaN4vygvu0WdvZvW-43" value="" style="endArrow=none;html=1;fontFamily=Helvetica;exitX=1;exitY=0.5;exitDx=0;exitDy=0;" edge="1" parent="1" source="gDLrxaN4vygvu0WdvZvW-42">
          <mxGeometry width="50" height="50" relative="1" as="geometry">
            <mxPoint x="480" y="330" as="sourcePoint" />
            <mxPoint x="260" y="220" as="targetPoint" />
          </mxGeometry>
        </mxCell>
        <mxCell id="gDLrxaN4vygvu0WdvZvW-45" value="1" style="text;html=1;strokeColor=none;fillColor=none;align=center;verticalAlign=middle;whiteSpace=wrap;rounded=0;fontFamily=Helvetica;" vertex="1" parent="1">
          <mxGeometry x="160" y="200" width="40" height="20" as="geometry" />
        </mxCell>
        <mxCell id="gDLrxaN4vygvu0WdvZvW-46" value="*" style="text;html=1;align=center;verticalAlign=middle;resizable=0;points=[];autosize=1;fontFamily=Helvetica;" vertex="1" parent="1">
          <mxGeometry x="240" y="200" width="20" height="20" as="geometry" />
        </mxCell>
        <mxCell id="gDLrxaN4vygvu0WdvZvW-47" value="Use the services" style="ellipse;whiteSpace=wrap;html=1;gradientColor=none;fontFamily=Helvetica;" vertex="1" parent="1">
          <mxGeometry x="790" y="240" width="80" height="40" as="geometry" />
        </mxCell>
        <mxCell id="gDLrxaN4vygvu0WdvZvW-69" style="edgeStyle=orthogonalEdgeStyle;rounded=0;orthogonalLoop=1;jettySize=auto;html=1;entryX=0;entryY=0.5;entryDx=0;entryDy=0;fontFamily=Helvetica;" edge="1" parent="1" source="gDLrxaN4vygvu0WdvZvW-48" target="gDLrxaN4vygvu0WdvZvW-47">
          <mxGeometry relative="1" as="geometry" />
        </mxCell>
        <mxCell id="gDLrxaN4vygvu0WdvZvW-48" value="Use the sauna" style="ellipse;whiteSpace=wrap;html=1;gradientColor=none;fontFamily=Helvetica;" vertex="1" parent="1">
          <mxGeometry x="610" y="240" width="80" height="40" as="geometry" />
        </mxCell>
        <mxCell id="gDLrxaN4vygvu0WdvZvW-50" value="Bartender" style="shape=umlActor;verticalLabelPosition=bottom;verticalAlign=top;html=1;outlineConnect=0;gradientColor=none;fontFamily=Helvetica;" vertex="1" parent="1">
          <mxGeometry x="270" y="430" width="30" height="60" as="geometry" />
        </mxCell>
        <mxCell id="gDLrxaN4vygvu0WdvZvW-55" style="edgeStyle=orthogonalEdgeStyle;rounded=0;orthogonalLoop=1;jettySize=auto;html=1;fontFamily=Helvetica;" edge="1" parent="1" source="gDLrxaN4vygvu0WdvZvW-52" target="gDLrxaN4vygvu0WdvZvW-41">
          <mxGeometry relative="1" as="geometry" />
        </mxCell>
        <mxCell id="gDLrxaN4vygvu0WdvZvW-52" value="Children" style="shape=umlActor;verticalLabelPosition=bottom;verticalAlign=top;html=1;outlineConnect=0;gradientColor=none;fontFamily=Helvetica;" vertex="1" parent="1">
          <mxGeometry x="410" y="140" width="30" height="60" as="geometry" />
        </mxCell>
        <mxCell id="gDLrxaN4vygvu0WdvZvW-56" style="edgeStyle=orthogonalEdgeStyle;rounded=0;orthogonalLoop=1;jettySize=auto;html=1;fontFamily=Helvetica;" edge="1" parent="1" source="gDLrxaN4vygvu0WdvZvW-54">
          <mxGeometry relative="1" as="geometry">
            <mxPoint x="300" y="219.9999999999999" as="targetPoint" />
            <Array as="points">
              <mxPoint x="360" y="290" />
              <mxPoint x="360" y="220" />
            </Array>
          </mxGeometry>
        </mxCell>
        <mxCell id="gDLrxaN4vygvu0WdvZvW-54" value="Adult" style="shape=umlActor;verticalLabelPosition=bottom;verticalAlign=top;html=1;outlineConnect=0;gradientColor=none;fontFamily=Helvetica;" vertex="1" parent="1">
          <mxGeometry x="410" y="260" width="30" height="60" as="geometry" />
        </mxCell>
        <mxCell id="gDLrxaN4vygvu0WdvZvW-68" style="edgeStyle=orthogonalEdgeStyle;rounded=0;orthogonalLoop=1;jettySize=auto;html=1;entryX=0;entryY=0.5;entryDx=0;entryDy=0;fontFamily=Helvetica;" edge="1" parent="1" source="gDLrxaN4vygvu0WdvZvW-58" target="gDLrxaN4vygvu0WdvZvW-47">
          <mxGeometry relative="1" as="geometry" />
        </mxCell>
        <mxCell id="gDLrxaN4vygvu0WdvZvW-58" value="Buy alcohol" style="ellipse;whiteSpace=wrap;html=1;gradientColor=none;fontFamily=Helvetica;" vertex="1" parent="1">
          <mxGeometry x="610" y="320" width="80" height="40" as="geometry" />
        </mxCell>
        <mxCell id="gDLrxaN4vygvu0WdvZvW-67" style="edgeStyle=orthogonalEdgeStyle;rounded=0;orthogonalLoop=1;jettySize=auto;html=1;entryX=0;entryY=0.5;entryDx=0;entryDy=0;fontFamily=Helvetica;" edge="1" parent="1" source="gDLrxaN4vygvu0WdvZvW-59" target="gDLrxaN4vygvu0WdvZvW-47">
          <mxGeometry relative="1" as="geometry" />
        </mxCell>
        <mxCell id="gDLrxaN4vygvu0WdvZvW-59" value="No age limit services" style="ellipse;whiteSpace=wrap;html=1;gradientColor=none;fontFamily=Helvetica;" vertex="1" parent="1">
          <mxGeometry x="610" y="160" width="80" height="40" as="geometry" />
        </mxCell>
        <mxCell id="gDLrxaN4vygvu0WdvZvW-60" value="" style="endArrow=none;html=1;fontFamily=Helvetica;exitX=0;exitY=0.5;exitDx=0;exitDy=0;" edge="1" parent="1" source="gDLrxaN4vygvu0WdvZvW-59">
          <mxGeometry width="50" height="50" relative="1" as="geometry">
            <mxPoint x="480" y="310" as="sourcePoint" />
            <mxPoint x="450" y="180" as="targetPoint" />
          </mxGeometry>
        </mxCell>
        <mxCell id="gDLrxaN4vygvu0WdvZvW-61" value="" style="endArrow=none;html=1;fontFamily=Helvetica;entryX=0;entryY=0.5;entryDx=0;entryDy=0;" edge="1" parent="1" target="gDLrxaN4vygvu0WdvZvW-59">
          <mxGeometry width="50" height="50" relative="1" as="geometry">
            <mxPoint x="460" y="280" as="sourcePoint" />
            <mxPoint x="530" y="260" as="targetPoint" />
          </mxGeometry>
        </mxCell>
        <mxCell id="gDLrxaN4vygvu0WdvZvW-62" value="" style="endArrow=none;html=1;fontFamily=Helvetica;entryX=0;entryY=0.5;entryDx=0;entryDy=0;" edge="1" parent="1" target="gDLrxaN4vygvu0WdvZvW-48">
          <mxGeometry width="50" height="50" relative="1" as="geometry">
            <mxPoint x="460" y="280" as="sourcePoint" />
            <mxPoint x="530" y="260" as="targetPoint" />
          </mxGeometry>
        </mxCell>
        <mxCell id="gDLrxaN4vygvu0WdvZvW-63" value="" style="endArrow=none;html=1;fontFamily=Helvetica;entryX=0;entryY=0.5;entryDx=0;entryDy=0;" edge="1" parent="1" target="gDLrxaN4vygvu0WdvZvW-58">
          <mxGeometry width="50" height="50" relative="1" as="geometry">
            <mxPoint x="460" y="280" as="sourcePoint" />
            <mxPoint x="530" y="260" as="targetPoint" />
          </mxGeometry>
        </mxCell>
        <mxCell id="gDLrxaN4vygvu0WdvZvW-77" style="edgeStyle=orthogonalEdgeStyle;rounded=0;orthogonalLoop=1;jettySize=auto;html=1;entryX=0.5;entryY=0;entryDx=0;entryDy=0;fontFamily=Helvetica;" edge="1" parent="1" source="gDLrxaN4vygvu0WdvZvW-70" target="gDLrxaN4vygvu0WdvZvW-76">
          <mxGeometry relative="1" as="geometry" />
        </mxCell>
        <mxCell id="gDLrxaN4vygvu0WdvZvW-70" value="Serve alcohol" style="ellipse;whiteSpace=wrap;html=1;gradientColor=none;fontFamily=Helvetica;" vertex="1" parent="1">
          <mxGeometry x="600" y="440" width="80" height="40" as="geometry" />
        </mxCell>
        <mxCell id="gDLrxaN4vygvu0WdvZvW-78" style="edgeStyle=orthogonalEdgeStyle;rounded=0;orthogonalLoop=1;jettySize=auto;html=1;entryX=0.5;entryY=0;entryDx=0;entryDy=0;fontFamily=Helvetica;" edge="1" parent="1" source="gDLrxaN4vygvu0WdvZvW-71" target="gDLrxaN4vygvu0WdvZvW-76">
          <mxGeometry relative="1" as="geometry" />
        </mxCell>
        <mxCell id="gDLrxaN4vygvu0WdvZvW-71" value="Serve non alcoholic drinks" style="ellipse;whiteSpace=wrap;html=1;gradientColor=none;fontFamily=Helvetica;" vertex="1" parent="1">
          <mxGeometry x="440" y="500" width="80" height="50" as="geometry" />
        </mxCell>
        <mxCell id="gDLrxaN4vygvu0WdvZvW-72" value="Check if cutomer is adult" style="ellipse;whiteSpace=wrap;html=1;gradientColor=none;fontFamily=Helvetica;" vertex="1" parent="1">
          <mxGeometry x="440" y="430" width="80" height="50" as="geometry" />
        </mxCell>
        <mxCell id="gDLrxaN4vygvu0WdvZvW-73" value="" style="endArrow=none;html=1;fontFamily=Helvetica;exitX=0;exitY=0.5;exitDx=0;exitDy=0;" edge="1" parent="1" source="gDLrxaN4vygvu0WdvZvW-72">
          <mxGeometry width="50" height="50" relative="1" as="geometry">
            <mxPoint x="480" y="430" as="sourcePoint" />
            <mxPoint x="310" y="460" as="targetPoint" />
          </mxGeometry>
        </mxCell>
        <mxCell id="gDLrxaN4vygvu0WdvZvW-74" value="" style="endArrow=none;html=1;fontFamily=Helvetica;entryX=0;entryY=0.5;entryDx=0;entryDy=0;" edge="1" parent="1" target="gDLrxaN4vygvu0WdvZvW-71">
          <mxGeometry width="50" height="50" relative="1" as="geometry">
            <mxPoint x="310" y="460" as="sourcePoint" />
            <mxPoint x="530" y="380" as="targetPoint" />
          </mxGeometry>
        </mxCell>
        <mxCell id="gDLrxaN4vygvu0WdvZvW-75" value="" style="endArrow=none;html=1;fontFamily=Helvetica;exitX=1;exitY=0.5;exitDx=0;exitDy=0;entryX=0;entryY=0.5;entryDx=0;entryDy=0;" edge="1" parent="1" source="gDLrxaN4vygvu0WdvZvW-72" target="gDLrxaN4vygvu0WdvZvW-70">
          <mxGeometry width="50" height="50" relative="1" as="geometry">
            <mxPoint x="480" y="430" as="sourcePoint" />
            <mxPoint x="530" y="380" as="targetPoint" />
          </mxGeometry>
        </mxCell>
        <mxCell id="gDLrxaN4vygvu0WdvZvW-76" value="Serve drinks" style="ellipse;whiteSpace=wrap;html=1;gradientColor=none;fontFamily=Helvetica;" vertex="1" parent="1">
          <mxGeometry x="600" y="550" width="80" height="40" as="geometry" />
        </mxCell>
      </root>
    </mxGraphModel>
  </diagram>
</mxfile>
